<svg width="107" height="33" viewBox="0 0 107 33" fill="none" xmlns="http://www.w3.org/2000/svg">
<path fill-rule="evenodd" clip-rule="evenodd" d="M7.07422 15.204C5.63299 15.204 4.38121 14.9063 3.31889 14.3108C2.26334 13.7086 1.44462 12.8594 0.86271 11.7633C0.28757 10.6604 0 9.35786 0 7.85573V7.35841C0 5.92394 0.27742 4.65525 0.832261 3.55233C1.39387 2.44265 2.18891 1.57318 3.2174 0.943906C4.25265 0.314635 5.48751 0 6.92198 0C7.91663 0 8.85377 0.142093 9.73339 0.42628C10.613 0.710467 11.3979 1.14351 12.0881 1.72542V5.29805H9.88564L9.58115 3.05501C9.24283 2.81818 8.86054 2.63211 8.43426 2.49678C8.00798 2.35469 7.52756 2.28364 6.99302 2.28364C5.74125 2.28364 4.75674 2.74037 4.03951 3.65383C3.32228 4.56052 2.96366 5.78861 2.96366 7.33811V7.85573C2.96366 9.41199 3.33581 10.6469 4.08011 11.5603C4.82441 12.4738 5.83936 12.9305 7.12497 12.9305C7.55125 12.9305 7.97753 12.8831 8.40381 12.7884C8.83685 12.6869 9.2293 12.5583 9.58115 12.4027L9.88564 10.3221H12.0881V13.8541C11.5129 14.233 10.7957 14.5544 9.93639 14.8183C9.07706 15.0754 8.123 15.204 7.07422 15.204ZM20.228 15.204C18.895 15.204 17.7278 14.8826 16.7264 14.2398C15.725 13.5902 14.9435 12.7004 14.3819 11.5705C13.827 10.4405 13.5496 9.15487 13.5496 7.71364V7.49035C13.5496 6.05588 13.827 4.77366 14.3819 3.64368C14.9435 2.5137 15.7216 1.62392 16.7163 0.974354C17.7177 0.324785 18.8849 0 20.2179 0C21.5508 0 22.7214 0.324785 23.7296 0.974354C24.7445 1.62392 25.5328 2.5137 26.0944 3.64368C26.6628 4.77366 26.947 6.05588 26.947 7.49035V7.71364C26.947 9.15487 26.6662 10.4405 26.1046 11.5705C25.543 12.7004 24.7547 13.5902 23.7397 14.2398C22.7316 14.8826 21.561 15.204 20.228 15.204ZM20.228 12.9C21.4798 12.9 22.4203 12.4264 23.0496 11.4791C23.6788 10.5251 23.9935 9.2699 23.9935 7.71364V7.47005C23.9935 6.44833 23.8514 5.55179 23.5672 4.78043C23.283 4.0023 22.8601 3.39671 22.2985 2.96366C21.7437 2.53061 21.0501 2.31409 20.2179 2.31409C18.9728 2.31409 18.0425 2.78774 17.4267 3.73502C16.8178 4.68231 16.5133 5.92732 16.5133 7.47005V7.71364C16.5133 9.2699 16.8211 10.5251 17.4369 11.4791C18.0594 12.4264 18.9898 12.9 20.228 12.9ZM28.1345 13.2147V14.9908H34.2546V13.2147L32.5089 12.9102V9.77399L32.3364 3.50159L32.3973 3.49144L36.9138 14.7879H39.1569L43.5719 3.40009L43.6328 3.41024L43.5821 10.0785V12.9102L41.9277 13.2147V14.9908H48.0479V13.2147L46.4645 12.9102V2.30394L48.0479 1.99946V0.21314H42.0799L38.1825 10.5149H38.1216L34.0923 0.21314H28.1345V1.99946L29.7077 2.30394V12.9102L28.1345 13.2147ZM49.1034 14.9908V13.2147L50.6766 12.9102V2.30394L49.1034 1.99946V0.21314H56.137C57.267 0.21314 58.2414 0.412747 59.0601 0.811962C59.8788 1.20441 60.5081 1.75587 60.9479 2.46633C61.3877 3.17003 61.6076 3.99215 61.6076 4.93267C61.6076 5.87319 61.3877 6.69869 60.9479 7.40915C60.5081 8.11285 59.8788 8.66093 59.0601 9.05338C58.2414 9.43906 57.267 9.6319 56.137 9.6319H53.6402V12.9102L55.2236 13.2147V14.9908H49.1034ZM53.6402 7.34826H56.137C56.9625 7.34826 57.585 7.12497 58.0045 6.67839C58.4308 6.22504 58.644 5.6499 58.644 4.95297C58.644 4.2425 58.4308 3.65721 58.0045 3.1971C57.585 2.73022 56.9625 2.49678 56.137 2.49678H53.6402V7.34826ZM60.0141 13.2147V14.9908H65.0483V13.2147L64.0232 13.032L64.6728 11.0021H69.8693L70.5189 13.032L69.4938 13.2147V14.9908H74.528V13.2147L73.4724 13.0624L68.8036 0.21314H65.7689L61.0697 13.0624L60.0141 13.2147ZM69.169 8.81994H65.3731L67.0884 3.78577L67.2406 3.30874H67.3015L67.4436 3.75532L69.169 8.81994ZM75.5125 14.9908V13.2147L77.0856 12.9102V2.30394L75.5125 1.99946V0.21314H80.0899L86.5247 10.4642L86.5856 10.454V2.30394L84.6978 1.99946V0.21314H90.818V1.99946L89.2346 2.30394V14.9908H86.3725L79.7956 4.84132L79.7347 4.85147V12.9102L81.6326 13.2147V14.9908H75.5125ZM95.8115 13.2147V14.9908H101.932V13.2147L100.348 12.9102V9.6928L104.672 2.20245L106.134 1.99946V0.21314H100.348V1.99946L101.972 2.172L99.2421 6.91183L99.0188 7.35841L98.9579 7.36855L98.7346 6.89153L96.2784 2.172L97.4862 1.99946V0.21314H91.5893V1.99946L93.0102 2.20245L97.3948 9.92624V12.9102L95.8115 13.2147ZM32.0993 32.91V31.7463L33.13 31.5468V24.5979L32.0993 24.3984V23.228H35.0983L39.3142 29.9442L39.3541 29.9376V24.5979L38.1172 24.3984V23.228H42.127V24.3984L41.0897 24.5979V32.91H39.2144L34.9054 26.2603L34.8656 26.2669V31.5468L36.109 31.7463V32.91H32.0993ZM42.0273 32.91V31.7463L42.7188 31.6465L45.7976 23.228H47.7859L50.8447 31.6465L51.5363 31.7463V32.91H48.2381V31.7463L48.9097 31.6266L48.4841 30.2967H45.0795L44.6539 31.6266L45.3255 31.7463V32.91H42.0273ZM45.5383 28.867H48.0253L46.8948 25.5488L46.8017 25.2562H46.7618L46.6621 25.5687L45.5383 28.867ZM52.1813 31.7463V32.91H56.1911V31.7463L55.0474 31.5468V29.492L54.9343 25.3825L54.9742 25.3759L57.9333 32.777H59.4029L62.2955 25.316L62.3354 25.3227L62.3022 29.6915V31.5468L61.2183 31.7463V32.91H65.228V31.7463L64.1907 31.5468V24.5979L65.228 24.3984V23.228H61.318L58.7645 29.9775H58.7246L56.0847 23.228H52.1813V24.3984L53.212 24.5979V31.5468L52.1813 31.7463ZM65.9196 32.91V31.7463L66.9503 31.5468V24.5979L65.9196 24.3984V23.228H73.4337V25.8414H71.9442L71.8578 24.7242H68.892V27.158H72.1703V28.6542H68.892V31.4205H72.0174L72.1038 30.2634H73.58V32.91H65.9196ZM15.2409 27.1767H0.18902V28.6102H15.2409V27.1767ZM86.9175 28.6102H101.97V27.1767H86.9175V28.6102Z" fill="white"/>
</svg>
